<?xml version="1.0" encoding="utf-8"?>
<!-- Generator: Adobe Illustrator 19.2.1, SVG Export Plug-In . SVG Version: 6.00 Build 0)  -->
<svg version="1.1" id="Layer_1" xmlns="http://www.w3.org/2000/svg" xmlns:xlink="http://www.w3.org/1999/xlink" x="0px" y="0px"
	 viewBox="0 0 100 100" style="enable-background:new 0 0 100 100;" xml:space="preserve">
<style type="text/css">
	.st0{fill:#FFFFFF;}
</style>
<g>
	<g>
		<g>
			<g>
				<path class="st0" d="M49.5,98.5c-1.2,0-2.3-0.6-2.9-1.7L26.1,56c-0.5-0.8-0.6-1.7-0.3-2.6c0.3-0.9,0.9-1.6,1.7-2.1l6.2-3
					l15.7,7.6L66.8,48l2.6,1.2l3.9,2c0.8,0.4,1.4,1.1,1.7,2c0.3,0.9,0.2,1.8-0.2,2.6L52.5,96.7C51.9,97.8,50.8,98.5,49.5,98.5
					C49.6,98.5,49.5,98.5,49.5,98.5z M31.3,50.8l-3.2,1.6c-0.5,0.3-0.9,0.7-1.1,1.3c-0.2,0.6-0.1,1.2,0.2,1.7l20.4,40.8
					c0.4,0.7,1.1,1.1,1.9,1.1c0.8,0,1.5-0.4,1.9-1.2l22.1-40.8c0.3-0.5,0.3-1.1,0.2-1.7c-0.2-0.6-0.6-1-1.1-1.3l-3.9-2l-2-1
					l-17.3,7.9l-15.7-7.6L31.3,50.8z"/>
			</g>
		</g>
	</g>
	<g>
		<g>
			<g>
				<path class="st0" d="M49.6,63L28.7,52.9c-0.4-0.2-0.7-0.6-0.7-1.1c0-0.5,0.3-0.9,0.7-1.1l5-2.4l15.7,7.6l17.2-7.7l5.3,2.6
					c0.4,0.2,0.7,0.6,0.7,1.1c0,0.5-0.3,0.9-0.7,1.1L49.6,63z M71.5,51.8l-4.8-2.3l-17.2,7.7l-15.7-7.6l-4.5,2.2l0,0l20.4,9.8"/>
			</g>
		</g>
	</g>
	<g>
		<path class="st0" d="M74.6,41.7L52.5,3.2c-0.6-1.1-1.8-1.7-3-1.7c-1.3,0-2.4,0.7-2.9,1.8L26.1,41.8c-0.4,0.8-0.5,1.7-0.2,2.6
			c0.3,0.9,0.9,1.6,1.7,2l3.9,2l18.1,8.8L70,48l3.2-1.6c0.8-0.4,1.5-1.1,1.7-2.1C75.2,43.5,75.1,42.5,74.6,41.7z M72.6,45.4
			l-3.2,1.6l-19.4,8.7V2.7c0.6,0.1,1,0.5,1.3,1l22.1,38.5c0.3,0.5,0.4,1.1,0.2,1.7C73.6,44.6,73.2,45.1,72.6,45.4z M27.2,42.4
			L47.6,3.8c0.3-0.5,0.7-0.9,1.3-1.1v52.8l-16.9-8.2l-3.9-2c-0.5-0.3-0.9-0.7-1.1-1.3C26.8,43.5,26.9,42.9,27.2,42.4z"/>
	</g>
	<g>
		<g>
			<g>
				<rect x="48.6" y="62.3" class="st0" width="1.8" height="35.6"/>
			</g>
		</g>
	</g>
</g>
</svg>
